<svg viewBox="0 0 752 471" xmlns="http://www.w3.org/2000/svg">
  <rect fill="#2557D6" x="1" width="750" height="471" rx="40"/>
  <path d="M1.003 221.185h36.024l8.123-19.51h18.185l8.1 19.51h70.88V206.27l6.328 14.98h36.796l6.32-15.203v15.138h176.15l-.08-32.026h3.4c2.38.08 3.08.3 3.08 4.22v27.8h91.1v-7.46c7.35 3.92 18.78 7.45 33.82 7.45h38.322l8.202-19.51h18.182l8.02 19.51h73.86v-18.53L657 221.17h59.19V98.68h-58.57v14.468l-8.2-14.468h-60.1v14.468L581.8 98.68h-81.187c-13.59 0-25.536 1.89-35.186 7.153v-7.15H409.4v7.157c-6.14-5.425-14.508-7.152-23.812-7.152H180.91l-13.734 31.64-14.104-31.64H88.6v14.47l-7.083-14.47H26.534L1 156.925v64.26h.003zm227.396-17.67h-21.62l-.08-68.794-30.58 68.8h-18.51l-30.65-68.85v68.86H84.08l-8.1-19.59h-43.9l-8.183 19.59H1l37.756-87.83h31.326l35.86 83.17V115.7h34.41l27.594 59.586 25.347-59.586h35.104v87.837h.003zM68.77 165.692l-14.43-35.017-14.35 35.017h28.78zm245.642 37.82H243.98v-87.836h70.434v18.29h-49.35V149.8h48.166v18.006h-48.16v17.542h49.35v18.166zm99.255-64.18c0 14.005-9.386 21.24-14.856 23.413 4.62 1.748 8.56 4.838 10.43 7.397 2.98 4.37 3.49 8.27 3.49 16.116v17.254h-21.26l-.08-11.077c0-5.285.51-12.886-3.32-17.112-3.08-3.09-7.77-3.76-15.37-3.76h-22.64v31.95h-21.08v-87.838h48.5c10.78 0 18.72.283 25.53 4.207 6.67 3.924 10.67 9.652 10.67 19.45zm-26.65 13.043c-2.9 1.752-6.325 1.81-10.43 1.81h-25.61v-19.51h25.96c3.674 0 7.51.164 10 1.584 2.733 1.28 4.425 4 4.425 7.76 0 3.84-1.61 6.93-4.344 8.35zm60.465 51.138H425.97v-87.837h21.514v87.837zm249.74 0h-29.88l-39.964-65.927v65.927h-42.94l-8.203-19.592h-43.8l-7.96 19.6h-24.67c-10.25 0-23.227-2.25-30.575-9.71-7.41-7.46-11.266-17.56-11.266-33.53 0-13.02 2.303-24.93 11.365-34.34 6.81-7.01 17.49-10.24 32.02-10.24h20.41v18.82h-19.98c-7.7 0-12.04 1.14-16.23 5.2-3.6 3.7-6.06 10.69-6.06 19.898 0 9.41 1.87 16.196 5.79 20.628 3.24 3.477 9.14 4.53 14.69 4.53h9.47l29.713-69.075h31.592l35.692 83.08V115.7h32.1l37.063 61.173V115.7h21.6v87.835zm-128.16-37.82l-14.59-35.018-14.51 35.017h29.1zm181.89 178.074c-5.12 7.458-15.1 11.24-28.61 11.24h-40.72v-18.84h40.553c4.02 0 6.835-.528 8.53-2.176 1.47-1.35 2.493-3.33 2.493-5.73 0-2.56-1.023-4.59-2.574-5.81-1.53-1.34-3.758-1.95-7.43-1.95-19.797-.67-44.495.61-44.495-27.19 0-12.74 8.12-26.15 30.25-26.15h42v-17.48h-39.02c-11.78 0-20.33 2.81-26.39 7.18v-7.17h-57.71c-9.23 0-20.07 2.28-25.19 7.18v-7.174H499.58v7.174c-8.203-5.893-22.043-7.176-28.43-7.176h-67.984v7.174c-6.49-6.26-20.92-7.174-29.716-7.174h-76.085l-17.41 18.76-16.307-18.76H149.99v122.59h111.517l17.94-19.06 16.9 19.06 68.74.06V343.5h6.756c9.12.14 19.878-.227 29.368-4.31v33.084h56.7v-31.96h2.74c3.49 0 3.84.143 3.84 3.616v28.33h172.23c10.94 0 22.37-2.783 28.7-7.84v7.845h54.63c11.37 0 22.47-1.586 30.92-5.65v-22.84zM409.45 296.613c0 24.406-18.285 29.445-36.715 29.445H346.43v29.47h-40.98l-25.963-29.086-26.98 29.085H168.99v-87.86h84.8l25.94 28.8 26.82-28.8h67.37c16.733 0 35.533 4.614 35.533 28.946zm-167.624 40.434h-51.84v-17.48h46.29V301.64h-46.29v-15.973h52.86l23.063 25.604-24.08 25.78zm83.526 10.06l-32.37-35.788 32.37-34.66v70.44zm47.873-39.066H345.98v-22.37h27.492c7.612 0 12.896 3.09 12.896 10.78 0 7.6-5.04 11.6-13.14 11.6zm142.743-40.37h70.37v18.17h-49.374v15.98h48.167v17.93h-48.16v17.48l49.38.08v18.23h-70.37v-87.86zm-27.055 47.03c4.693 1.73 8.53 4.82 10.33 7.38 2.976 4.29 3.407 8.3 3.492 16.04v17.42h-21.17v-11c0-5.28.51-13.11-3.41-17.19-3.08-3.15-7.776-3.9-15.467-3.9h-22.53v32.09h-21.185v-87.86h48.678c10.68 0 18.45.47 25.37 4.15 6.66 4.007 10.84 9.49 10.84 19.51 0 14.027-9.39 21.18-14.94 23.376zM477 303.59c-2.82 1.667-6.31 1.81-10.412 1.81h-25.613v-19.733h25.962c3.754 0 7.51.08 10.062 1.587 2.73 1.423 4.36 4.144 4.36 7.903 0 3.76-1.64 6.788-4.37 8.433zm190.335 5.597c4.106 4.23 6.306 9.572 6.306 18.614 0 18.91-11.85 27.73-33.12 27.73h-41.06v-18.84h40.9c4 0 6.84-.52 8.62-2.17 1.45-1.36 2.49-3.33 2.49-5.73 0-2.56-1.12-4.59-2.57-5.81-1.61-1.34-3.83-1.95-7.5-1.95-19.72-.67-44.41.61-44.41-27.19 0-12.74 8.04-26.16 30.148-26.16h42.27v18.7h-38.7c-3.833 0-6.326.15-8.446 1.59-2.31 1.43-3.166 3.54-3.166 6.32 0 3.32 1.96 5.57 4.613 6.55 2.22.77 4.61 1 8.2 1l11.35.307c11.44.28 19.3 2.25 24.08 7.066zM751 285.667h-38.427c-3.836 0-6.385.143-8.532 1.587-2.22 1.423-3.08 3.534-3.08 6.322 0 3.314 1.88 5.57 4.61 6.544 2.23.77 4.62.996 8.13.996l11.43.304c11.53.284 19.23 2.258 23.92 7.072.86.67 1.37 1.422 1.96 2.175v-25z" fill="#FFF"/>
</svg>
