<svg xmlns="http://www.w3.org/2000/svg" viewBox="0 0 780 501">
  <path fill="#4D4D4D" d="M54.992 0C24.627 0 0 24.63 0 55.004v390.992C0 476.376 24.62 501 54.992 501h670.016C755.373 501 780 476.37 780 445.996V55.004C780 24.624 755.38 0 725.008 0H54.992z"/>
  <path fill="#FFF" d="M327.152 161.893c8.837 0 16.248 1.784 25.268 6.09v22.75c-8.544-7.862-15.955-11.153-25.756-11.153-19.264 0-34.414 15.015-34.414 34.05 0 20.075 14.68 34.196 35.37 34.196 9.312 0 16.586-3.12 24.8-10.857v22.76c-9.34 4.14-16.91 5.77-25.756 5.77-31.278 0-55.582-22.6-55.582-51.74 0-28.83 24.95-51.88 56.07-51.88zm-97.113.627c11.54 0 22.11 3.72 30.94 10.994l-10.75 13.248c-5.35-5.646-10.41-8.028-16.57-8.028-8.86 0-15.3 4.745-15.3 10.99 0 5.353 3.62 8.187 15.94 12.48 23.36 8.045 30.29 15.177 30.29 30.927 0 19.2-14.98 32.56-36.32 32.56-15.63 0-27-5.79-36.46-18.87l13.263-12.03c4.73 8.61 12.624 13.22 22.42 13.22 9.165 0 15.95-5.95 15.95-13.98 0-4.16-2.055-7.73-6.158-10.25-2.067-1.194-6.16-2.976-14.2-5.646-19.29-6.54-25.91-13.526-25.91-27.184 0-16.225 14.213-28.41 32.845-28.41zm234.72 1.728h22.44l28.08 66.592 28.44-66.592h22.26L520.5 265.934h-11.05l-44.69-101.686zm-397.35.152h30.15c33.31 0 56.53 20.382 56.53 49.64 0 14.59-7.11 28.697-19.12 38.058-10.11 7.9-21.63 11.445-37.58 11.445H67.41V164.4zm96.13 0h20.54v99.143h-20.54V164.4zm411.73 0h58.25v16.8H595.8v22.005h36.335v16.79h-36.33v26.763h37.724v16.785h-58.25V164.4zm71.86 0h30.45c23.69 0 37.262 10.71 37.262 29.272 0 15.18-8.513 25.14-23.985 28.105l33.15 41.766h-25.26l-28.43-39.828h-2.676v39.828h-20.51V164.4zm20.51 15.616v30.025h6c13.115 0 20.07-5.36 20.07-15.32 0-9.65-6.957-14.69-19.748-14.69h-6.325zM87.94 181.2v65.558h5.51c13.274 0 21.657-2.394 28.11-7.88 7.104-5.955 11.377-15.465 11.377-24.98 0-9.5-4.273-18.725-11.376-24.68-6.78-5.78-14.83-8.02-28.11-8.02h-5.51z"/>
  <path fill="#F47216" d="M415.13 161.213c30.94 0 56.022 23.58 56.022 52.71v.032c0 29.13-25.08 52.742-56.02 52.742-30.94 0-56.023-23.613-56.023-52.742v-.033c0-29.13 25.08-52.71 56.02-52.71zM779.983 288.36c-26.05 18.332-221.077 149.34-558.754 212.624h503.76c30.36 0 54.99-24.63 54.99-55.004V288.36z"/>
</svg>
