<svg viewBox="0 0 750 471" xmlns="http://www.w3.org/2000/svg">
  <rect fill="#000" width="750" height="471" rx="40"/>
  <path d="M434.008 235.5c0 99.142-80.37 179.504-179.508 179.504S75 334.642 75 235.5c0-99.133 80.362-179.504 179.5-179.504 99.137 0 179.508 80.37 179.508 179.504" fill="#D9222A"/>
  <path d="M495.492 55.996c-46.38 0-88.642 17.596-120.5 46.466-6.488 5.884-12.546 12.238-18.125 18.996h36.266c4.96 6.03 9.525 12.37 13.684 19.013h-63.634c-3.812 6.11-7.275 12.45-10.34 19.01h84.31c2.88 6.16 5.422 12.5 7.6 19.01h-99.51c-2.076 6.19-3.822 12.53-5.218 19.01h109.942c2.637 12.25 4.04 24.97 4.04 38.01 0 19.94-3.253 39.12-9.253 57.02h-99.512c2.175 6.52 4.716 12.86 7.595 19.01h84.317c-3.075 6.57-6.53 12.91-10.346 19.02h-63.625c4.154 6.63 8.73 12.98 13.684 19h36.258c-5.57 6.77-11.633 13.14-18.13 19.01 31.86 28.87 74.118 46.46 120.497 46.46C594.63 415.01 675 334.64 675 235.5c0-99.13-80.37-179.504-179.508-179.504" fill="#EE9F2D"/>
  <path d="M651.075 335.558c0-3.2 2.592-5.8 5.796-5.8 3.21 0 5.8 2.6 5.8 5.8 0 3.2-2.59 5.8-5.79 5.8s-5.79-2.6-5.79-5.8zm5.796 4.41c2.44 0 4.41-1.976 4.41-4.41 0-2.437-1.97-4.404-4.41-4.404-2.43 0-4.4 1.967-4.4 4.404 0 2.434 1.97 4.41 4.41 4.41zm-.78-1.86h-1.19v-5.095h2.15c.45 0 .91 0 1.31.254.42.28.65.77.65 1.28 0 .57-.33 1.103-.88 1.31l.94 2.25h-1.31l-.78-2.015h-.87v2.016zm0-2.89h.66c.25 0 .51.02.73-.1.2-.126.3-.36.3-.585 0-.195-.12-.42-.29-.516-.21-.13-.53-.1-.76-.1h-.63v1.3zm-443.5-80.064c-2.04-.237-2.94-.3-4.35-.3-11.04 0-16.63 3.788-16.63 11.267 0 4.62 2.73 7.55 6.99 7.55 7.94 0 13.66-7.56 14-18.51zm14.17 32.996h-16.14l.37-7.675c-4.92 6.067-11.49 8.95-20.42 8.95-10.56 0-17.8-8.25-17.8-20.23 0-18.024 12.6-28.54 34.22-28.54 2.21 0 5.05.2 7.95.57.61-2.442.76-3.487.76-4.8 0-4.908-3.39-6.738-12.5-6.738-9.53-.108-17.39 2.27-20.62 3.334.21-1.22 2.7-16.65 2.7-16.65 9.71-2.84 16.12-3.91 23.33-3.91 16.74 0 25.6 7.51 25.58 21.71.03 3.81-.59 8.5-1.58 14.67-1.69 10.73-5.32 33.72-5.81 39.32zm-62.15 0h-19.49l11.17-69.996-24.92 69.996h-13.28l-1.64-69.596-11.74 69.596H86.46l15.24-91.054h28.02l1.7 50.967 17.09-50.967h31.167L164.6 288.15m354.975-32.996c-2.037-.237-2.942-.3-4.342-.3-11.04 0-16.633 3.788-16.633 11.267 0 4.62 2.725 7.55 6.983 7.55 7.938 0 13.663-7.56 13.992-18.51zm14.183 32.996h-16.145l.366-7.675c-4.93 6.067-11.5 8.95-20.43 8.95-10.57 0-17.8-8.25-17.8-20.23 0-18.024 12.59-28.54 34.21-28.54 2.21 0 5.03.2 7.93.57.6-2.442.76-3.487.76-4.8 0-4.908-3.39-6.738-12.5-6.738-9.53-.108-17.39 2.27-20.63 3.334.2-1.22 2.71-16.65 2.71-16.65 9.71-2.84 16.11-3.91 23.31-3.91 16.74 0 25.6 7.51 25.58 21.71.03 3.81-.6 8.5-1.58 14.67-1.68 10.73-5.32 33.72-5.81 39.32zm-220.39-1.125c-5.335 1.68-9.493 2.4-14 2.4-9.964 0-15.4-5.725-15.4-16.267-.143-3.27 1.432-11.88 2.67-19.737 1.124-6.91 8.45-50.52 8.45-50.52h19.37l-2.26 11.21h11.7l-2.644 17.8h-11.742c-2.25 14.09-5.454 31.63-5.49 33.95 0 3.82 2.036 5.49 6.67 5.49 2.22 0 3.94-.22 5.254-.7l-2.58 16.4m59.392-.6c-6.654 2.04-13.075 3.02-19.88 3-21.682-.02-32.986-11.34-32.986-33.03 0-25.31 14.38-43.94 33.9-43.94 15.97 0 26.17 10.44 26.17 26.8 0 5.43-.7 10.73-2.387 18.21H339c-1.304 10.74 5.57 15.22 16.837 15.22 6.934 0 13.188-1.43 20.142-4.66l-3.23 18.42zm-10.887-43.9c.11-1.54 2.06-13.21-9.01-13.21-6.17 0-10.58 4.71-12.38 13.22h21.4zm-123.42-5.01c0 9.37 4.54 15.83 14.84 20.68 7.9 3.71 9.12 4.81 9.12 8.17 0 4.62-3.48 6.7-11.19 6.7-5.81 0-11.22-.9-17.46-2.92 0 0-2.56 16.32-2.68 17.1 4.43.97 8.38 1.87 20.28 2.2 20.57 0 30.06-7.83 30.06-24.75 0-10.17-3.97-16.14-13.74-20.63-8.17-3.75-9.1-4.59-9.1-8.05 0-4 3.24-6.04 9.54-6.04 3.83 0 9.05.41 14 1.12l2.78-17.172c-5.04-.8-12.69-1.44-17.15-1.44-21.8 0-29.34 11.383-29.28 25.06m229.09-23.12c5.42 0 10.46 1.42 17.42 4.92l3.19-19.766c-2.86-1.12-12.91-7.7-21.42-7.7-13.04 0-24.06 6.47-31.82 17.15-11.31-3.75-15.96 3.82-21.66 11.364l-5.06 1.18c.38-2.483.73-4.95.61-7.45h-17.9c-2.44 22.92-6.78 46.13-10.17 69.08l-.88 4.98h19.5c3.26-21.14 5.04-34.68 6.12-43.84l7.35-4.08c1.1-4.08 4.53-5.46 11.42-5.29-.9 4.83-1.38 9.916-1.38 15.18 0 24.227 13.07 39.31 34.05 39.31 5.4 0 10.04-.714 17.22-2.66l3.43-20.76c-6.46 3.18-11.76 4.674-16.56 4.674-11.33 0-18.18-8.36-18.18-22.18 0-20.05 10.2-34.11 24.75-34.11" fill="#000"/>
  <path d="M170.208 282.742h-19.49l11.17-69.988-24.926 69.988H123.68l-1.643-69.588-11.733 69.588H92.062L107.3 191.7h28.02l.788 56.363 18.904-56.363h30.267l-15.08 91.042" fill="#FFF"/>
  <path d="M632.52 197.096l-4.32 26.308c-5.33-7.012-11.054-12.087-18.612-12.087-9.834 0-18.784 7.454-24.642 18.425-8.158-1.692-16.596-4.563-16.596-4.563l-.004.06c.658-6.14.92-9.88.862-11.15h-17.9c-2.437 22.91-6.77 46.13-10.158 69.07l-.892 4.97h19.492c2.633-17.1 4.65-31.3 6.133-42.55 6.66-6.02 9.992-11.27 16.72-10.92-2.978 7.2-4.724 15.5-4.724 24.01 0 18.51 9.36 30.72 23.53 30.72 7.14 0 12.62-2.46 17.96-8.17l-.92 6.88h18.44l14.84-91.04h-19.22zm-24.37 73.942c-6.633 0-9.983-4.91-9.983-14.596 0-14.554 6.27-24.875 15.112-24.875 6.69 0 10.32 5.104 10.32 14.508 0 14.68-6.37 24.963-15.45 24.963z" fill="#000"/>
  <path d="M218.192 249.758c-2.042-.237-2.946-.3-4.346-.3-11.046 0-16.634 3.788-16.634 11.267 0 4.604 2.73 7.546 6.98 7.546 7.945 0 13.666-7.55 14-18.51zm14.18 32.984h-16.147l.367-7.663c-4.92 6.05-11.5 8.95-20.42 8.95-10.568 0-17.805-8.25-17.805-20.23 0-18.04 12.59-28.55 34.216-28.55 2.21 0 5.042.2 7.938.57.61-2.44.77-3.49.77-4.81 0-4.91-3.39-6.73-12.49-6.73-9.53-.11-17.39 2.27-20.63 3.32.21-1.23 2.7-16.64 2.7-16.64 9.71-2.86 16.12-3.93 23.32-3.93 16.74 0 25.61 7.52 25.59 21.7.03 3.82-.6 8.51-1.58 14.67-1.68 10.72-5.32 33.72-5.81 39.31zm261.374-88.592l-3.192 19.767c-6.95-3.496-12-4.92-17.408-4.92-14.55 0-24.75 14.057-24.75 34.107 0 13.82 6.858 22.18 18.183 22.18 4.8 0 10.09-1.492 16.55-4.676l-3.42 20.75c-7.19 1.96-11.82 2.67-17.23 2.67-20.98 0-34.05-15.082-34.05-39.307 0-32.55 18.06-55.3 43.89-55.3 8.51 0 18.56 3.61 21.42 4.73m31.44 55.61c-2.04-.23-2.94-.3-4.35-.3-11.04 0-16.64 3.79-16.64 11.27 0 4.61 2.73 7.55 6.98 7.55 7.94 0 13.66-7.55 13.99-18.51zm14.18 32.99h-16.15l.37-7.66c-4.93 6.06-11.5 8.95-20.42 8.95-10.57 0-17.81-8.25-17.81-20.23 0-18.03 12.59-28.54 34.21-28.54 2.21 0 5.04.2 7.94.57.6-2.44.76-3.48.76-4.8 0-4.9-3.4-6.72-12.5-6.72-9.54-.11-17.4 2.27-20.63 3.32.2-1.22 2.7-16.63 2.7-16.63 9.71-2.86 16.12-3.93 23.32-3.93 16.74 0 25.6 7.52 25.58 21.71.03 3.82-.6 8.51-1.58 14.68-1.68 10.73-5.33 33.73-5.81 39.32zm-220.39-1.12c-5.34 1.68-9.5 2.41-14 2.41-9.97 0-15.4-5.72-15.4-16.26-.14-3.28 1.43-11.88 2.67-19.74 1.12-6.92 8.44-50.53 8.44-50.53h19.36l-2.26 11.21h9.94l-2.65 17.79h-9.97c-2.25 14.09-5.47 31.62-5.5 33.95 0 3.83 2.04 5.49 6.67 5.49 2.22 0 3.93-.22 5.25-.69l-2.58 16.39m59.39-.59c-6.65 2.04-13.08 3.02-19.88 3-21.68-.02-32.99-11.34-32.99-33.03 0-25.32 14.38-43.95 33.9-43.95 15.97 0 26.17 10.43 26.17 26.8 0 5.44-.7 10.74-2.38 18.22H344.6c-1.304 10.74 5.57 15.22 16.838 15.22 6.93 0 13.187-1.43 20.136-4.67l-3.22 18.42zm-10.89-43.91c.12-1.54 2.06-13.21-9.01-13.21-6.17 0-10.58 4.72-12.38 13.22h21.39zm-123.42-5c0 9.37 4.54 15.82 14.84 20.68 7.89 3.71 9.11 4.81 9.11 8.17 0 4.62-3.49 6.7-11.19 6.7-5.82 0-11.22-.91-17.47-2.92 0 0-2.56 16.32-2.67 17.1 4.42.97 8.37 1.85 20.27 2.19 20.57 0 30.06-7.83 30.06-24.74 0-10.18-3.97-16.15-13.74-20.64-8.17-3.76-9.11-4.58-9.11-8.04 0-4 3.24-6.06 9.54-6.06 3.82 0 9.05.42 14 1.12l2.77-17.18c-5.04-.8-12.69-1.44-17.14-1.44-21.8 0-29.35 11.38-29.28 25.07m398.46 50.63h-18.43l.91-6.89c-5.343 5.72-10.82 8.18-17.964 8.18-14.163 0-23.525-12.21-23.525-30.72 0-24.63 14.52-45.39 31.7-45.39 7.56 0 13.28 3.09 18.608 10.098l4.32-26.31h19.22L642.47 282.8zm-28.75-17.11c9.072 0 15.45-10.28 15.45-24.95 0-9.4-3.63-14.51-10.328-14.51-8.84 0-15.116 10.32-15.116 24.88 0 9.69 3.36 14.59 9.99 14.59zm-56.84-56.93c-2.44 22.92-6.78 46.13-10.16 69.06l-.89 4.98h19.49c6.97-45.27 8.66-54.11 19.58-53.01 1.74-9.26 4.984-17.38 7.4-21.47-8.16-1.7-12.72 2.91-18.69 11.67.47-3.79 1.335-7.47 1.16-11.226h-17.9m-160.42 0c-2.45 22.92-6.78 46.13-10.17 69.066l-.883 4.974h19.5c6.96-45.277 8.645-54.12 19.57-53.01 1.75-9.267 4.99-17.38 7.4-21.48-8.155-1.7-12.717 2.91-18.68 11.674.47-3.79 1.33-7.47 1.163-11.23h-17.9m254.57 68.24c0-3.21 2.6-5.8 5.8-5.8 3.208 0 5.8 2.59 5.8 5.8 0 3.2-2.59 5.8-5.8 5.8-3.2 0-5.8-2.6-5.8-5.79zm5.8 4.41c2.44 0 4.408-1.973 4.408-4.4 0-2.43-1.97-4.41-4.4-4.41s-4.41 1.975-4.41 4.41c0 2.43 1.977 4.403 4.41 4.403zm-.78-1.87h-1.19v-5.08h2.158c.45 0 .91.01 1.3.25.42.29.66.77.66 1.28 0 .574-.335 1.11-.885 1.316l.95 2.233h-1.32l-.78-2.01h-.87v2.01zm0-2.88h.655c.246 0 .513.02.73-.1.195-.123.295-.36.295-.59 0-.183-.12-.41-.29-.52-.2-.12-.54-.083-.76-.083h-.63v1.3z" fill="#FFF"/>
</svg>
