<svg viewBox="0 0 750 471" xmlns="http://www.w3.org/2000/svg">
  <rect fill="#0E4595" width="750" height="471" rx="40"/>
  <path d="M278.197 334.228l33.36-195.763h53.36l-33.383 195.763h-53.337zm246.11-191.54c-10.57-3.966-27.136-8.222-47.822-8.222-52.725 0-89.865 26.55-90.18 64.603-.298 28.13 26.513 43.82 46.753 53.18 20.77 9.59 27.752 15.71 27.654 24.28-.132 13.12-16.587 19.11-31.923 19.11-21.36 0-32.71-2.97-50.23-10.28l-6.88-3.11-7.49 43.822c12.46 5.464 35.51 10.2 59.44 10.444 56.09 0 92.5-26.248 92.91-66.883.2-22.27-14.02-39.217-44.8-53.19-18.65-9.054-30.08-15.1-29.95-24.267 0-8.134 9.66-16.84 30.55-16.84 17.45-.27 30.09 3.54 39.935 7.5l4.78 2.26 7.233-42.43m137.31-4.22h-41.23c-12.774 0-22.33 3.49-27.94 16.236l-79.24 179.41h56.03s9.16-24.125 11.233-29.42c6.125 0 60.555.084 68.338.084 1.59 6.852 6.49 29.333 6.49 29.333h49.51L661.6 138.45zm-65.41 126.41c4.414-11.28 21.26-54.722 21.26-54.722-.315.52 4.38-11.335 7.076-18.685l3.606 16.88s10.214 46.73 12.35 56.53H596.2zM232.9 138.46l-52.24 133.5-5.567-27.12c-9.725-31.27-40.025-65.154-73.898-82.12l47.766 171.206 56.46-.065 84-195.38H232.9" fill="#FFF"/>
  <path d="M131.92 138.465H45.88l-.683 4.073c66.94 16.204 111.232 55.363 129.618 102.414l-18.708-89.96c-3.23-12.395-12.6-16.094-24.188-16.526" fill="#F2AE14"/>
</svg>
