<svg xmlns="http://www.w3.org/2000/svg" viewBox="0 0 24 24">
  <path fill="#fff" d="M0 23.988V0h24v23.988z"/>
  <path d="M24 21.6c0 1.325-1.075 2.4-2.4 2.4H2.4C1.075 24 0 22.925 0 21.6V2.4C0 1.075 1.075 0 2.4 0h19.2C22.925 0 24 1.075 24 2.4v19.2" fill="#31AFD8" mask="url(#b)"/>
  <path d="M20.195 7.97c-.078 1.688-1.257 4-3.538 6.934-2.358 3.063-4.353 4.596-5.984 4.596-1.012 0-1.867-.933-2.566-2.8l-1.4-5.132c-.52-1.866-1.075-2.8-1.67-2.8-.13 0-.585.274-1.362.817l-.816-1.05c.85-.752 1.7-1.504 2.53-2.257 1.14-.986 2-1.505 2.57-1.558 1.35-.13 2.18.793 2.49 2.768.333 2.13.57 3.455.7 3.974.39 1.768.815 2.65 1.283 2.65.36 0 .907-.572 1.634-1.72.726-1.146 1.115-2.018 1.17-2.618.1-.99-.288-1.485-1.17-1.485-.415 0-.843.09-1.284.28.853-2.79 2.48-4.15 4.885-4.07 1.782.05 2.623 1.21 2.52 3.464" fill="#FFFFFE"/>
</svg>
