<svg xmlns="http://www.w3.org/2000/svg" viewBox="0 0 24 24">
  <defs>
    <path id="a" d="M0 0h23.98v16.866H0z"/>
    <path d="M9.515 5.323v6.738l6.48-3.38-6.48-3.35zm14.227 7.905s-.235 1.653-.954 2.38c-.912.956-1.934.96-2.402 1.016-3.356.243-8.39.243-8.39.243h-.01s-5.034 0-8.39-.243c-.47-.056-1.49-.06-2.403-1.016-.72-.727-.953-2.38-.953-2.38S0 11.288 0 9.348v-1.82c0-1.94.24-3.882.24-3.882s.234-1.652.953-2.38C2.105.31 3.303.34 3.837.24 5.757.058 11.99 0 11.99 0s5.04.008 8.396.25c.468.056 1.49.06 2.402 1.016.72.728.954 2.38.954 2.38s.24 1.94.24 3.882v1.82c0 1.94-.24 3.88-.24 3.88z" id="c"/>
    <linearGradient x1="50.002%" y1="100.003%" x2="50.002%" y2="0%" id="e">
      <stop stop-color="#E62426" offset="0%"/>
      <stop stop-color="#C01E25" offset="100%"/>
    </linearGradient>
  </defs>
  <g fill="none" fill-rule="evenodd">
    <path fill="#FFF" fill-rule="nonzero" d="M9.514 15.56l6.48-3.356-6.48-3.38v6.737"/>
    <path fill="#EAE0E1" fill-rule="nonzero" d="M15.196 12.617L9.514 8.823l6.48 3.38-.798.414"/>
    <g transform="matrix(1 0 0 -1 0 20.884)">
      <mask id="b" fill="#fff">
        <use xlink:href="#a"/>
      </mask>
      <g mask="url(#b)">
        <mask id="d" fill="#fff">
          <use xlink:href="#c"/>
        </mask>
        <path d="M11.76 0v.002h-.21v.003h-.196v.002h-.186V.01h-.352v.002h-.167v.002h-.17V.02h-.31v.003h-.15v.003h-.14v.002h-.14V.03h-.13v.003h-.14v.002h-.13v.003h-.12V.04h-.13v.002h-.12v.003h-.12v.002h-.12V.05h-.22v.002H8.4v.002h-.108V.06h-.21v.003H7.98v.003h-.097v.002h-.1V.07H7.69v.003h-.095v.002h-.092v.002h-.09V.08h-.09v.002h-.09v.003H7.15v.002h-.09V.09h-.162v.002h-.08v.002h-.08V.1h-.154v.003H6.51v.003h-.075v.002h-.073V.11h-.07v.003h-.07v.002h-.07v.002h-.067V.12H6.02v.002h-.066v.002h-.066v.003h-.06V.13h-.124v.004h-.06v.002h-.06V.14h-.118v.003h-.053v.003h-.056v.002h-.054V.15H5.25v.003h-.053v.002h-.052v.002h-.05V.16H5.05v.002H5v.002h-.05v.003h-.046V.17h-.09v.004h-.046v.002h-.044v.002H4.68V.18h-.04v.003H4.6v.002h-.04v.003h-.04V.19h-.04v.003h-.038v.002h-.038v.002h-.037V.2h-.035v.002H4.3v.002h-.036v.003h-.036V.21h-.063v.004h-.033v.002h-.03v.002h-.03V.22H4.04v.003h-.028v.002h-.028v.003h-.028V.23h-.028v.002h-.026v.003h-.026v.002H3.85V.24h-.033v.002h-.014v.003H3.79V.25h-.03v.004h-.015v.002h-.017v.002h-.016V.26h-.017v.003H3.68v.002h-.02v.003h-.02V.27h-.017v.002h-.017v.003h-.02v.002h-.02V.28H3.53v.002h-.022v.002h-.02V.29H3.45v.003h-.02v.003h-.02v.002h-.017V.3h-.02v.003h-.018v.002h-.02v.003H3.32V.31H3.3v.002h-.015v.003h-.02v.002H3.25V.32h-.034v.002H3.2v.002h-.016V.33h-.03v.003h-.017v.003h-.014v.002h-.017V.34h-.014v.003h-.014v.002h-.014v.002H3.05V.35h-.014v.002h-.014v.003h-.015v.002h-.01V.36H2.97v.002h-.012v.002h-.014V.37h-.022v.003H2.91v.003h-.014v.002h-.012V.38h-.01v.003H2.86v.002h-.01v.002h-.012V.39h-.01v.002h-.01v.002h-.01v.003h-.012V.4h-.02v.004h-.01v.002h-.012V.41h-.02v.003h-.008v.003h-.01v.002h-.01V.42H2.7v.003h-.01v.002h-.01v.002h-.01V.43h-.01v.002h-.01v.002h-.01v.003h-.008V.44h-.017v.004h-.01v.002H2.6v.002h-.01V.45h-.01v.003h-.007v.002h-.01v.003h-.006V.46h-.01v.003H2.54v.002h-.007v.002h-.01V.47h-.006v.002H2.51v.002H2.5v.003h-.007V.48h-.016v.004H2.47v.002h-.007v.002h-.007V.49H2.45v.003h-.01v.002h-.007v.003h-.007V.5H2.42v.002h-.007v.003h-.01v.002h-.006V.51h-.014v.002h-.007v.003H2.37V.52h-.012v.004H2.35v.002h-.005v.002h-.007V.53H2.33v.003h-.006v.002h-.007v.003h-.004V.54h-.007v.002h-.008v.003H2.29v.002h-.003V.55h-.014v.002h-.005v.002H2.26V.56h-.01v.003h-.006v.003h-.007v.002h-.004V.57h-.007v.003H2.22v.002h-.006v.003h-.007V.58h-.005v.002h-.007v.003H2.19v.002h-.004V.59h-.012v.002H2.17v.002h-.01V.6h-.007v.003h-.007v.003H2.14v.002h-.004V.61H2.13v.003h-.005v.002H2.12v.002h-.007V.62h-.005v.002h-.004v.003H2.1v.002h-.01V.63h-.01v.002h-.004v.002H2.07V.64h-.006v.003H2.06v.003h-.01v.002h-.005V.65H2.04v.003h-.004v.002H2.03v.002h-.004V.66h-.004v.002H2.02v.002h-.01v.003h-.005V.67h-.007v.004h-.005v.002H1.99V.68h-.01v.003h-.005v.003H1.97v.002h-.005V.69H1.96v.003h-.004v.002H1.95V.7h-.006v.002H1.94v.002h-.005v.003H1.93V.71h-.01v.004h-.004v.002H1.91V.72h-.006v.003H1.9v.002h-.005v.003H1.89V.73h-.002v.003h-.005v.002h-.005v.002h-.004V.74H1.87v.002h-.004v.002h-.004v.003h-.005V.75h-.01v.004h-.002v.002H1.84v.002h-.004V.76H1.83v.005h-.006v.003H1.82V.77h-.005v.002h-.003v.003h-.004v.002h-.005V.78h-.007v.002H1.79V.79h-.01v.004h-.005v.002H1.77V.8h-.004v.003H1.76v.005h-.004V.81H1.75v.002h-.003v.003h-.005v.002h-.005V.82H1.73v.002h-.002v.002h-.005V.83h-.006v.003h-.002v.003H1.71v.002h-.006V.84h-.002v.003h-.005v.002h-.002v.003H1.69V.85h-.002v.002h-.005v.003H1.68v.002h-.004V.86H1.67v.002h-.003v.002h-.005V.87h-.007v.003h-.002v.003h-.005v.002h-.002V.88H1.64v.005h-.006v.002h-.002V.89H1.63v.002h-.005v.002h-.003v.003h-.004V.9h-.005v.002h-.005v.002h-.002V.91H1.6v.003h-.004v.003h-.004v.002H1.59V.92h-.005v.003h-.003v.002H1.58v.002h-.005V.93h-.002v.002h-.005v.002h-.002v.003h-.002V.94h-.008v.004h-.003v.002H1.55v.002h-.003V.95h-.005v.003H1.54v.003h-.002v.002h-.003V.96H1.53v.005h-.002v.002H1.52v.005h-.003v.002h-.003v.003H1.51V.98h-.005v.004h-.002v.002h-.005v.002h-.002V.99h-.003v.003h-.005v.002h-.002v.003h-.002V1H1.48v.002h-.003v.003h-.003v.002h-.002v.003h-.005v.002h-.002v.002h-.002v.003H1.46v.002h-.097v.01H1.36v.01h-.003v.01h-.005v.01H1.35v.01h-.002v.01h-.003v.01h-.002v.01H1.3v.01h-.002v.01H1.29v.01h-.03v.01h-.004v.01H1.25v.01h-.013v.01H1.22v.01h-.016v.01H1.2v.01h-.04v.01h-.005v.01h-.002v.01H1.15v.01h-.004v.01h-.012v.01h-.016v.01H1.1v.01h-.006v.01h-.016v.01h-.005v.01H1.07v.01h-.002v.01h-.014v.01H1.04v.01h-.01v.01h-.004v.01H1.02v.01h-.003v.01H1.01v.01H.998v.01H.995v.01H.993v.01H.99v.01H.986v.02H.984v.01H.972v.01H.97v.01H.963v.01H.958v.01H.95v.01H.94v.01H.93v.01H.923v.01H.916v.01H.91v.01H.905v.01H.902v.01H.9v.01H.894v.01H.892v.01H.878v.01H.87v.01H.865v.01H.86v.01H.852v.01H.848v.01H.843v.01H.838v.01H.833v.01H.83v.01H.82v.01H.816v.01H.81v.02H.79v.01H.776v.01H.77v.01H.768v.01H.763v.04H.76v.01H.756v.01H.75v.01H.744v.01H.742v.01H.74v.01H.737v.01h-.01v.01H.72V2H.714v.005H.71v.007H.706v.005H.704v.004H.702v.01H.7v.01H.697v.01H.695v.01H.693v.01H.69v.01H.688v.01H.686v.01H.68v.01H.675v.01H.67v.01H.666v.01H.664v.01H.662v.01H.657v.01H.655v.01H.65v.01H.648v.01H.64v.01H.635v.01H.63v.01H.626v.01H.62v.01H.617v.01H.615v.01H.613v.01H.61v.01H.608v.01H.6v.01H.595v.01H.59v.01H.586v.01H.58v.02H.575v.01H.573v.01H.57v.01H.566v.01H.563v.01H.56v.01H.555v.01H.55v.01H.546v.01H.54v.02H.535v.01H.533v.01H.53v.01H.526v.01H.52v.01H.516v.01H.512v.01H.51v.01H.506v.02H.5v.02H.498v.01H.495v.01H.493v.01H.49v.01H.48v.01H.476v.01H.472v.01H.47v.01H.467v.01H.463v.01H.46v.01H.458v.01H.455v.01H.453v.01H.45v.01H.446v.01H.444v.01H.44v.02H.436v.01H.432v.01H.43v.01H.427v.01H.425v.01H.423v.01H.42v.01H.418v.01H.416v.01H.413v.01H.41v.02H.405v.01H.4v.02H.396v.01H.394v.01H.392v.01H.39v.01H.387v.01H.385v.01H.383V3H.378v.01H.376V3H.37v.02H.365v.02H.36v.017H.356v.02H.35v.018H.347v.01H.345v.01H.343v.01H.34v.01H.338v.01H.336v.01H.333v.01H.33v.022H.325v.02H.32v.022H.316v.02H.31v.02H.308v.01H.305v.01H.303v.01H.3v.02H.296v.01H.293v.01H.29v.02H.285v.04H.28v.02H.276v.02H.27v.02H.268v.01H.265v.02H.263v.01H.26v.02H.256v.01H.254v.01H.25v.02H.246v.01H.244v.02H.242v.01H.24v.02H.236v.04H.23v.04H.228v.02H.225v.02H.223v.02H.22v.04H.216v.02H.214v.02H.21v.05H.206v.02H.204v.02H.202v.02H.2V4H.197v.024H.195v.02H.193v.02H.19v.024H.188v.02H.185v.025H.183v.023H.18v.048H.176v.024H.174v.026H.17v.05H.166v.024H.164v.023H.162v.03H.16v.02H.157v.03H.155v.03H.153v.03H.15v.03H.148v.03H.146v.03H.143v.02H.14v.05H.135v.05H.13v.06H.126v.03H.124v.03H.122v.03H.12v.03H.117v.03H.115v.03H.113v.03H.11V5H.106v.03H.103v.03H.1v.062H.095v.063H.09v.066H.086v.07H.08v.07H.077v.04H.075v.04H.073v.03H.07v.04H.068v.04H.066v.04H.063v.04H.06v.08H.055v.07H.05v.08H.046v.09H.04v.1H.038v.05H.035v.05H.033v.05H.03v.11H.026v.06H.023v.06H.02v.13H.015v.14H.01v.16H.006v.21H0v2.6h.002v.15h.003v.12h.002v.1H.01v.16h.002v.07h.002v.06H.02v.13h.003v.06h.003v.06h.002v.05H.03v.05h.003v.05h.002v.05h.003v.05H.04v.05h.002v.05h.003V11H.05v.08h.002v.04h.002v.04H.06v.077h.003v.04h.003v.034h.002v.04H.07v.04h.003v.04h.002v.04h.002v.03H.08v.04h.002v.03h.003v.04h.002v.04H.09v.06h.002v.04h.002v.03H.1v.06h.003v.03h.003v.03h.002v.03H.11v.03h.003v.03h.002V12h.002v.03H.12v.03h.002v.024h.002v.03h.003v.028H.13v.06h.004v.03h.002v.026H.14v.053h.003v.03h.003v.03h.002v.03H.15v.03h.003v.03h.002v.03h.002v.03H.16v.02h.002v.03h.002v.03h.003v.02H.17v.05h.004v.03h.002v.02h.002v.03H.18v.02h.003v.02h.002v.02h.003v.02H.19v.02h.003v.02h.002v.03h.002v.02H.2v.02h.002v.02h.002v.03h.003V13h.007v.023h.002v.02h.002v.022H.22v.02h.003v.02h.002v.02h.003v.022H.23v.02h.002v.02h.003v.02h.002v.02H.24v.03h.002v.015h.003v.014H.25v.028h.004v.014h.002v.014h.002v.014H.26v.012h.003v.014h.002v.012h.003v.014H.27v.012h.002v.012h.003v.014h.002v.01H.28v.023h.002v.01h.002v.01H.29v.02h.003v.01h.003v.01h.002v.01H.3v.01h.003v.01h.002v.01h.003v.01H.31v.01h.002v.01h.005v.01H.32v.02h.002v.01h.002v.01H.33v.02h.003v.01h.003v.01h.002v.01H.34v.01h.003v.01h.002v.01h.002v.01H.35v.01h.002v.01h.003v.01h.002v.01H.36v.02h.002v.01h.002v.01H.37v.02h.003v.01h.005v.01H.38v.01h.003v.01h.002v.01h.002v.01H.39v.01h.002v.01h.002v.01H.4v.02h.004V14h.002v.01H.41v.016h.003v.01h.003v.01h.002v.006H.42v.01h.003v.006h.002v.01h.002v.007H.43v.01h.002v.006h.002v.01h.003v.01H.44v.02h.004v.01h.002v.01h.002v.01H.45v.01h.003v.01h.002v.01h.003v.01H.46v.01h.003v.01h.002v.01h.002v.01H.47v.01h.002v.01h.002v.01h.003v.01H.48v.02h.004v.01h.002v.01h.002v.01H.49v.01h.003v.01h.002v.01h.003v.01H.5v.01h.002v.01h.003v.01h.002v.01H.51v.01h.002v.01h.003v.01H.52v.02h.004v.01h.002v.01h.002v.01h.005v.01h.002v.01h.003v.01h.004v.01h.003v.01h.002v.01H.55v.01h.002v.01h.002v.01H.56v.01h.003v.01h.003v.01h.002v.01H.57v.01h.003v.01h.002v.01h.003v.01h.004v.01h.003v.01H.59v.02h.004v.01H.6v.02h.003v.01h.003v.01h.002v.01H.61v.01h.003v.01h.004v.01h.008v.01H.63v.02h.002v.01h.002v.01H.64v.01h.003v.01h.003v.01H.65v.01h.003v.01H.66v.01h.002v.01h.002v.01H.67v.01h.01v.01h.008v.01h.007v.01h.007v.01h.005v.01H.71V15h.038v.003H.75v.01h.004V15h.014v.002H.77V15h.005v.005h.002v.004H.79v.01h.032v.01H.83v.01h.01v.01h.015v.01H.86v.01h.002v.01h.05v.01h.013v.01h.007v.01H.94v.01h.008v.01h.008v.01h.01v.01h.018v.01H.99v.01H1v.003h.002v.01h.005v.006h.005v.01h.007v.08h.01v.02h.02v.01h.01v.005h.03v.01h.01v.02h.01v.01h.01v.01h.01v.01h.01v.01h.02v.01h.01v.016h.01v.01h.01v.01h.02v.03h.01v.003h.02v.01h.03v.03h.01v.01h.02v.02h.01v.002h.01v.01h.03v.02h.01v.01h.02v.01h.02v.01h.01v.01h.01v.036h.03v.01h.01v.01h.02v.02h.01v.01h.01v.02h.04v.01h.02v.1h.01v.1h.03V16h.01v.004h.02v.01h.02v.01h.01v.01h.02v.01h.01v.01h.01v.01h.03v.01h.01v.02h.01v.01h.02v.01h.01v.01h.02v.01h.02v.01h.01v.01h.02v.01h.04v.01h.02v.01h.01v.01H2v.01h.02v.01h.02v.01h.01v.015h.01v.01h.07v.01h.067v.01h.056v.01h.01v.01h.066v.01h.02v.01h.04v.01h.08v.01h.06v.01h.02v.01h.02v.01h.1v.01h.06v.01h.08v.01h.03v.01h.2v.01h.05v.01h.06v.01h.19v.01h.14v.01h.02v.01h.31v.01h.45v.01h.47v.005h.18v.01h.24v.005h.05v.01h.26v.01h.27v.005h.18v.01h.65v.002h.66v.004h.53v.01h.3v.01h.11v.008h.55v.01h.52v.01h.79v.01h.4v.01h2.24v.01h.59v.004h.81v.02h.75v.01h.61v.02h1.07v.03h.16v.01h.3v-.002h.36v-.01h.34v-.01h.25v-.01h.51v.01h.1v.01h.16v-.01h.05v.01H19v.01h.084v-.01h.045v-.01h.05v-.01h.73v-.02h.22v-.01h.14v-.01h.23v-.01h.04v-.01h.02v-.01h.07v.01h.04v-.01h.04v-.01h.04v-.01h.04v-.01h.02v-.01h.05v-.01h.07v-.01H21v-.01h.04v-.01h.016v-.01h.072v-.01h.025v-.01h.02v-.01h.03v-.01h.04v-.02h.01v-.01h.03v-.01h.092v-.01h.12v-.01h.01v-.006h.01v-.005h.067v-.01h.01v-.03h.01v-.01h.102v-.01h.046v-.01h.03v-.01h.02v-.01h.01v-.02h.01v-.01h.02v-.01h.01v-.01h.01v-.01h.013v-.01h.002v-.01h.03v-.01h.02v-.01h.01v-.01h.005v-.01h.08v-.01h.004v-.01h.005v-.02h.01v-.02h.02v-.01h.01v-.01h.01v-.01h.01v-.01h.01v-.01h.02v-.01h.03v-.01h.01v-.03h.02v-.01h.01v-.02h.02V16h.04v-.006h.01V16h.01v-.017h.09v-.01h.02v-.01h.01v-.01h.01v-.01h.01v-.03h.02v-.04h.01v-.02h.01v-.01h.02v-.01h.01v-.01h.01v-.02h.01v-.01h.01v-.01h.01v-.01h.01v-.01h.03v-.01h.01v-.02h.01v-.01h.01v-.01h.02v-.01h.01v-.01h.01v-.01h.01v-.01h.03v-.02h.01v-.01h.01v-.01h.01v-.05h.03v-.043h.01v-.02h.01v-.05h.01v-.02h.01v-.01h.02v-.02h.01v-.01h.09v-.01h.1v-.01H23v-.01h.005v-.01h.002v-.01h.002v-.04h.01v-.03h.01v-.1h.01v-.03h.003v-.02h.004v-.02h.01v-.02h.01v-.04h.01v-.02h.01V15h.02v-.015h.01v-.01h.01v-.025h.01v-.003h.01v-.01h.01v-.03h.01v-.03h.01v-.02h.01v-.01h.01v-.01h.01v-.01h.01v-.02h.01v-.02h.01v-.1h.01v-.01h.01v-.008h.01v-.02h.01v-.02h.01v-.02h.01v-.07h.01v-.06h.01v-.03h.01v-.01h.01v-.02h.02v-.03h.01v-.03h.01v-.06h.002v-.04h.01v-.06h.01v-.03h.01v-.02h.01v-.01h.003v-.01h.01v-.03h.006v-.04h.004V14h.016v-.05h.01v-.02h.008v-.1h.005v-.07h.01v-.01h.005v-.1h.01v-.04h.01v-.01h.01v-.03h.01v-.01h.005v-.15h.01v-.01h.01v-.01h.002v-.08h.01v-.07h.006v-.07h.01v-.06h.01v-.04h.01v-.17h.01v-.1h.01v-.05h.01v-.22h.01v-.23h.01v-.1h.01v-.02h.006v-.17h.01v-.08h.01v-.18h.01v-.07h.01v-.51h.006v-.07h.01v-.083h.01v-.265h.01v-.21h.006v-.32h.01V7h.01v-.1h.02v-.24h.01v-.13h-.01v-.18h.01v-.16h.01v-.24h-.01v-.133h-.01v-.12h.03V5.62h.01v-.215h-.01V5.37h.02v-.066h.02V5.24h-.01v-.31h.01v-.115h-.01V4.68h-.01v-.083h-.004V4.57h-.01v-.025h.02v-.077h.01v-.175h-.03v-.166h.003v-.33h-.01v-.062h-.01v-.21h-.01v-.053h-.01v-.014h-.01v-.023h-.01V3.41h-.01v-.025h.01v-.01h-.01V3.36h-.01v-.02h-.01v-.023h.01v-.01h.01v-.013h-.01v-.116h-.01v-.05h-.01v-.04h-.01v-.01h-.01V3.03h-.01v-.068h-.01v-.006h-.01v-.01h-.02v-.042h-.01v-.01h-.01v-.016h-.01v-.02h-.01V2.85h-.01v-.12h-.01v-.047h-.01V2.66h-.01v-.042h-.01v-.013h-.01V2.58h-.01v-.007h-.01V2.48h-.01v-.007h-.01V2.46h-.01v-.014h-.01V2.42h-.01v-.04h-.01v-.012h-.02V2.34h.01v-.02h-.02v-.005h-.01v-.017h-.01v-.044h-.01v-.02h-.01V2.22h-.01v-.025h-.01V2.19h-.01v-.02h-.005v-.034h-.01v-.063h-.01v-.007h-.01v-.02h-.01v-.01h-.01V2.03h-.01v-.168h-.01v-.014h-.01v-.01h-.01V1.83h-.01v-.003h-.01v-.01h-.01v-.005h-.01V1.81h-.01v-.06h-.01V1.7h-.01v-.012h-.01V1.68h-.01v-.006h-.01v-.012h-.01V1.66h-.01v-.01h-.01v-.002h-.02v-.012h-.01v-.012h-.01V1.62h-.01v-.006h-.01v-.057h-.01V1.55h-.01v-.022H23V1.52h-.004v-.006h-.002v-.002h-.002v-.005h-.003v-.002h-.01v-.007h-.01V1.49h-.01v-.01h-.01v-.008h-.01v-.01h-.01V1.46h-.01v-.007h-.01v-.01h-.01V1.39h-.01v-.005h-.01v-.007h-.01V1.36h-.01v-.03h-.01v-.008h-.01v-.006h-.01V1.29h-.01v-.013h-.01v-.005h-.01v-.007h-.01v-.002h-.01V1.26h-.01v-.002h-.01v-.016h-.01v-.015h-.01v-.004h-.01V1.22h-.01v-.01h-.01v-.017h-.01V1.18h-.01v-.004h-.02V1.17h-.01v-.003h-.01V1.16h-.01v-.017h-.01V1.13h-.01v-.012h-.01v-.003h-.01V1.11h-.01v-.03h-.01v-.002h-.02v-.005h-.01v-.005h-.01v-.014h-.01v-.007h-.01v-.012h-.01V1.03h-.01v-.004h-.01v-.002h-.01V1.02h-.01v-.01h-.01V.997h-.01V.994h-.01V.99h-.01V.98h-.01V.976h-.01V.972h-.01V.967h-.01V.965h-.01V.95h-.01V.925h-.01V.923h-.01V.916h-.01V.91h-.01V.9h-.01V.894h-.01V.876h-.01v-.01h-.01V.85h-.01V.848h-.01V.845h-.02v-.01h-.01V.83h-.01V.81h-.01V.803h-.01V.796h-.01V.79h-.01V.782h-.01V.78h-.01V.776h-.01V.77h-.01V.768h-.01V.765h-.01V.76h-.01V.756h-.01V.74h-.01V.727h-.01V.724h-.01V.72h-.01V.716h-.01V.714h-.01V.71h-.01V.706h-.01V.704h-.01V.702h-.01V.7H22V.656h-.006V.652h-.005V.65h-.01V.648h-.01V.646h-.01V.643h-.01V.64h-.01V.635h-.01V.63h-.01V.626h-.01V.62h-.01V.605h-.01V.6h-.01V.595h-.01V.59h-.01V.586h-.01V.58h-.01V.578h-.01V.57h-.01V.56h-.01V.555h-.01V.55h-.01V.546h-.01V.54h-.02V.538h-.01V.535h-.01V.533h-.01V.53h-.01V.526h-.01V.524h-.01V.52h-.02V.514h-.01V.51h-.01V.506h-.01V.5h-.02V.498h-.01V.495h-.01V.493h-.01V.49h-.02V.484h-.01V.48h-.02V.474h-.01V.472h-.01V.47h-.01V.467h-.01V.465h-.01V.463h-.01V.46h-.01V.458h-.01V.455h-.01V.45h-.01V.446h-.01V.44h-.02V.436h-.01V.434h-.01V.432h-.01V.43h-.01V.427h-.01V.42h-.01V.418h-.01V.416h-.01V.413h-.01V.41h-.02V.405h-.01V.4h-.01V.396h-.01V.394h-.01V.39h-.01V.387h-.01V.385h-.01V.383h-.01V.38h-.01V.378h-.01V.376h-.01V.373h-.01V.37h-.02V.365h-.02V.36h-.02V.356h-.03V.35h-.02V.347h-.01V.345h-.01V.343h-.01V.34h-.01V.338h-.01V.336h-.02V.333H21V.32h-.03V.316h-.03V.31h-.03V.308h-.01V.305h-.018V.303h-.018V.3h-.033V.296h-.02V.293h-.01V.29h-.03V.285h-.04V.28h-.04V.276h-.04V.27h-.05V.268h-.02V.265h-.02V.263h-.02V.26h-.04V.256h-.02V.254h-.02V.25h-.05V.246h-.03V.244h-.03V.242h-.04V.24h-.03V.236h-.07V.23h-.07V.228h-.04V.225h-.04V.223H20V.22h-.074V.216h-.037V.214h-.04V.21h-.08V.206h-.04V.204h-.04V.202h-.04V.2h-.04V.197h-.04V.195h-.04V.193h-.04V.19h-.04V.188h-.04V.185h-.05V.183h-.04V.18h-.09V.176h-.05V.174h-.05V.17h-.09V.166H19V.164h-.047V.162h-.046V.16h-.047V.157h-.05V.155h-.05V.153h-.048V.15h-.052V.148h-.05V.146h-.05V.143h-.053V.14H18.4V.135h-.11V.13h-.107V.126h-.058V.124h-.056V.122h-.06V.12h-.06V.117h-.06V.115h-.06V.113h-.06V.11h-.07V.108h-.07V.106h-.07V.103h-.06V.1h-.13V.095h-.14V.09h-.15V.086h-.15V.08h-.15V.077h-.08V.075h-.08V.073h-.08V.07h-.08V.068h-.09V.066h-.08V.063h-.09V.06h-.18V.055h-.19V.05h-.2V.046h-.21V.04h-.22V.038h-.11V.035h-.12V.033h-.13V.03h-.26V.026h-.14V.023h-.14V.02H14V.015h-.34V.01h-.393V.006h-.48V0h-1.03zM9.515 5.327v-.002h.003v.002h.005v.002h.087v.01h.072v.01h.004v.01h.01v.01h.01v.02h.026v.01h.006v.01h.102v.01h.01v.01h.01v.01h.01v.01h.01v.01h.01v.01h.01v.01h.04v.01h.03v.01h.01v.01h.026v.01h.005v.01h.06v.01h.02v.01h.03v.01h.01v.01h.01v.01h.03v.01h.01v.01h.03v.01h.03v.01h.02v.01h.02v.01h.02v.01h.01v.01h.01v.01h.01v.01h.04v.01h.01v.01h.02v.01h.02v.01h.08v.01h.02v.02h.02v.01h.04v.01h.01v.01h.02v.01h.03v.01h.01v.01h.01v.01h.01v.01h.02v.01h.01v.01h.01v.03h.04v.01h.01v.01h.02v.01h.04v.01h.03v.01h.01v.01h.02V6h.03v.016h.02v.004h.01v.002h.01v.005h.01v.002h.11H11h.01v.03h.01v.02h.02v.01h.02v.01h.02v.01h.01v.01h.05v.01h.01v.01h.014v.01h.01v.01h.04v.01h.01v.01h.004v.01h.01v.01h.047v.01h.02v.01h.01v.01h.035v.01h.004v.01h.01v.01h.01v.01h.01v.01h.037v.01h.01v.01h.02v.01h.02v.01h.09v.01h.02v.02h.03v.01h.02v.01h.02v.01h.02v.01h.01v.01h.04v.01h.01v.01h.02v.01h.01v.01h.01v.01h.01v.01h.04v.01h.06v.01h.02v.01h.03v.01h.01v.02h.01v.02H12v.01h.005v.01h.005v.01h.033v.01h.067v.01h.01v.01h.01v.04h.015v.01h.004v.01h.01v.01h.01v.01h.01v.01h.07v.01h.02v.01h.01v.01h.01v.01h.02v.01h.01v.02h.01v.01h.01v.01h.06v.01h.01v.01h.02v.01h.02v.01h.04v.01h.01v.01h.03v.05h.01v.01h.03v.01h.01v.01h.01v.01h.01v.01h.01v.02h.01v.01h.02V7h.01v.027h.09v.01h.05v.01h.01v.02h.02v.02h.01v.01H13v.01h.1v.02h.01v.01h.02v.01h.01v.01h.06v.01h.02v.01h.02v.01h.07v.02h.005v.01h.01v.02h.01v.02h.005v.01h.015v.01h.01v.01h.01v.01h.02v.01h.01v.01h.01v.01h.03v.01h.023v.01h.03v.01h.01v.02h.04v.01h.036v.01h.02v.01h.04v.01h.014v.002h.027v.01h.01v.01h.02v.01h.06v.01h.02v.01h.05v.01h.01v.01h.01v.02h.02v.03h.014v.01h.1v.01h.01v.02h.02v.02h.01v.01h.03v.05h.05v.01h.01v.01h.01v.01h.01v.02h.07v.01h.01v.03h.04v.01h.02v.01h.03v.01h.03v.01h.03v.02h.01v.02h.01v.02h.01v.01h.03v.02h.02v.01h.03v.02h.03v.01h.05V8h.01v.004h.01v.002h.01v.034h.01v.01h.01v.01h.01v.01h.02v.01h.03v.01h.01v.01h.06v.01h.01v.02h.01v.01h.03v.01h.03v.01h.01v.02h.1v.01H15v.01h.017v.01h.025v.02h.01v.02h.002v.01h.016v.01h.03v.01h.01v.02h.03v.01h.01v.01h.02v.01h.02v.01h.01v.01h.02v.01h.02v.01h.01v.01h.03v.01h.03v.01h.01v.01h.01v.01h.02v.01h.004v.01h.01v.01h.02v.01h.02v.01h.002v.02h.02v.01h.04v.01h.047v.01h.014v.01h.01v.01h.03v.01h.067v.01h.01v.01h.02v.01h.01v.01h.027v.01h.02v.01h.01v.01h.01v.02h.01v.02h.03v.01h.01v.01h.01v.01h.01v.01h.05v.01h.04v.01h-.02v.03h-.02v.01h-.01v.007h-.05v.01h-.01v.01h-.02v.002h-.03v.01h-.05v.01h-.02v.02h-.01v.02h-.01v.01h.01-.01v.01h-.08v.01h-.01v.01h-.06v.01h-.01v.01h-.01v.01h-.02v.02h-.05v.01h-.01v.01h-.04v.01h.01V9h-.03v.004h-.01v.004h-.01v.003h-.01v.01h-.01v.01h-.01v.01h-.01v.01h-.01v.01h-.01v.02h-.03v.01h-.01v.01h-.03v.01h-.03v.01h-.01v.01h-.01v.02h-.04v.01h-.01v.01h-.01v.01H15v.05h-.01v.01h-.004v.01h-.005v.01h-.03v.01h-.01v.01h-.01v.01h-.03v.01h-.05v.01h-.01v.02h-.02v.01h-.02v.01h-.01v.01h-.05v.01h-.02v.01h-.01v.01h-.05v.01h-.02v.01h-.01v.01h-.01v.02h-.02v.01h-.05v.01h-.01v.01h-.02v.01h-.01v.01h-.01v.01h-.03v.01h-.02v.01h-.01v.01h-.01v.01h-.01v.01h-.01v.01h-.02v.01h-.02v.01h-.01v.01h-.01v.01h-.02v.01h-.01.01-.01v.01h-.02v.01h-.02v.01h-.01v.01h-.06v.01h-.01v.01h-.02v.01h-.01v.01h-.05v.01h-.01v.01h-.01v.01h-.02v.02h-.01v.01h-.01v.02H14v.01h-.005v.01h-.014v.01h-.01v.01h-.07v.01h-.03v.01h-.01v.03h-.05v.01h-.01v.01h-.01V9.8h-.05v.008h-.01v.01h-.01v.004h-.02v.003h-.01v.008h-.01v.006h-.01v.03h-.01v.02h-.04v.01h-.07v.01h-.06v.01h-.01V10h-.01v.006h-.01v.003h-.15.01-.01v.01h-.04v.01h-.01v.01h-.02v.01h-.04v.01h-.03v.01h-.12v.01h-.03v.01H13v.01h-.02v.01h-.05v.01h-.13v.01h-.04v.01h-.01v.01h-.01v.01h-.1v.01h-.01v.01h-.02v.01h-.04v.01h-.01v.01h-.01v.01h-.08v.006h-.03v.01h-.02v.01h-.01v.01h-.02v.01h-.02v.01h-.02v.003h-.06v.01h-.01v.007h-.02v.01h-.05v.005h-.04v.01h-.02v.01h-.04v.005h-.02v.01h-.01v.005h-.01v.01h-.04v.005h-.06.01v.01h-.05v.01h-.05v.01h-.03v.01h-.01v.01h-.01v.01h-.01v.02h-.03v.01h-.01v.01h-.04v.01h-.02v.01h-.07v.01h-.01v.01h-.01v.01h-.01v.005h-.01v.002h-.03v.01h-.01v.1h-.01v.01h-.01v.007h-.01v.2h-.03v.1h-.01V11h-.01v.002h-.01v.003h-.01v.008h-.01v.004h-.01v.01h-.01v.01h-.01v.003h-.01v.01h-.02v.01h-.01v.01h-.01v.01h-.01v.01h-.01v.01h-.02v.01h-.02v.01h-.01v.007h-.01v.01h-.01v.004h-.01v.01h-.03v.01h-.02v.01h-.004v.01h-.014v.01h-.04v.01h-.01v.01h-.004v.01h-.01v.01h-.01v.01h-.01v.01h-.05v.01h-.01v.01h-.02v.01h-.02v.01H11v.01h-.01v.01h-.01v.01h-.01v.01h-.03v.01h-.01v.01h-.02v.01h-.04v.01h-.01v.01h-.01v.01h-.01v.01h-.04v.01h-.01v.01h-.02v.01h-.02v.01h-.03v.01h-.02v.01h-.01v.01h-.02v.01h-.02v.01h-.03v.01h-.03v.01h-.05v.01h-.03v.01h-.05v.01h-.04v.01h-.01v.01h-.01v.01h-.01v.01h-.03v.01h-.01v.01h-.02v.01h-.01v.01h-.03v.006h-.03v.003h-.023v.01h-.035v.01h-.02v.01h-.01v.01h-.01v.02h-.02v.01h-.03v.01h-.01v.01h-.03v.01h-.01v.01h-.02v.01h-.014v.01h-.01v.01h-.01v.01H10v.002h-.04v.01h-.1v.01h-.01v.01h-.003v.005h-.015v.008h-.026v.01h-.05v.01h-.003v.005h-.01v.01h-.03v.01H9.7v.007h-.036v.003H9.63v.1h-.028v.1H9.58v.01h-.003v.006h-.015v.01H9.54v.01h-.003v.01h-.01v.01h-.012v-6.8z" mask="url(#d)" fill-rule="nonzero" fill="url(#e)"/>
      </g>
    </g>
  </g>
</svg>
